<?xml version="1.0" encoding="UTF-8" standalone="no"?>
<!-- Created with Inkscape (http://www.inkscape.org/) -->

<svg
   width="1024"
   height="1024"
   viewBox="0 0 270.93334 270.93334"
   version="1.1"
   id="svg5"
   xml:space="preserve"
   inkscape:version="1.3 (0e150ed6c4, 2023-07-21)"
   sodipodi:docname="app_icon-monochrome_original.svg"
   inkscape:export-filename="app_icon-exported.svg"
   inkscape:export-xdpi="96"
   inkscape:export-ydpi="96"
   xmlns:inkscape="http://www.inkscape.org/namespaces/inkscape"
   xmlns:sodipodi="http://sodipodi.sourceforge.net/DTD/sodipodi-0.dtd"
   xmlns="http://www.w3.org/2000/svg"
   xmlns:svg="http://www.w3.org/2000/svg"><sodipodi:namedview
     id="namedview7"
     pagecolor="#ffffff"
     bordercolor="#000000"
     borderopacity="0.25"
     inkscape:showpageshadow="2"
     inkscape:pageopacity="0.0"
     inkscape:pagecheckerboard="false"
     inkscape:deskcolor="#d1d1d1"
     inkscape:document-units="px"
     showgrid="false"
     inkscape:zoom="0.51276154"
     inkscape:cx="288.63319"
     inkscape:cy="570.4406"
     inkscape:window-width="1920"
     inkscape:window-height="1011"
     inkscape:window-x="0"
     inkscape:window-y="0"
     inkscape:window-maximized="1"
     inkscape:current-layer="layer1"
     showguides="true" /><defs
     id="defs2" /><g
     inkscape:label="Camada 1"
     inkscape:groupmode="layer"
     id="layer1"><path
       id="path205"
       style="fill:#000000;fill-opacity:1;stroke-width:0.330848"
       d="m 63.978525,42.862501 c -11.694058,0 -22.119477,4.189224 -31.276128,12.567709 -9.15667,8.378316 -14.617851,18.410526 -16.382979,30.096355 L 0.43304851,196.32084 c -1.32385867,9.92182 0.38610466,17.69391 5.12991959,23.3164 4.7438049,5.62233 11.3084339,8.4336 19.6928549,8.4336 5.074765,0 9.376937,-0.82662 12.907223,-2.47995 3.530277,-1.65366 6.509338,-3.69317 8.936406,-6.11849 l 34.420122,-34.39584 h 73.188816 a 59.266666,59.266666 0 0 0 56.95828,42.99428 59.266666,59.266666 0 0 0 59.26667,-59.26667 59.266666,59.266666 0 0 0 -8.94416,-31.19189 59.266666,59.266666 0 0 1 0.32918,0.43459 L 254.94465,85.526565 C 253.17951,73.840736 247.71887,63.808526 238.56219,55.43021 229.40555,47.051725 218.98011,42.862501 207.28606,42.862501 Z M 180.14663,79.24271 c 3.53027,0 6.61942,1.322923 9.26714,3.96875 2.6477,2.645828 3.97185,5.732751 3.97185,9.260417 0,3.527827 -1.32415,6.614588 -3.97185,9.260413 -2.64772,2.64583 -5.73687,3.96875 -9.26714,3.96875 -3.53029,0 -6.6189,-1.32292 -9.26662,-3.96875 -2.6477,-2.645825 -3.97185,-5.732586 -3.97185,-9.260413 0,-3.527666 1.32415,-6.614589 3.97185,-9.260417 2.64772,-2.645827 5.73633,-3.96875 9.26662,-3.96875 z m -96.017913,1.65468 c 2.401278,0 4.386981,0.780834 5.957259,2.342492 1.570106,1.561999 2.355412,3.537229 2.355412,5.925737 v 16.536461 h 16.547832 c 2.3903,0 4.36743,0.77177 5.93038,2.3151 1.56277,1.5435 2.34405,3.5147 2.34405,5.91437 0,2.39883 -0.78128,4.38365 -2.34405,5.95364 -1.56305,1.56834 -3.54018,2.35231 -5.93038,2.35231 H 92.441388 v 16.53646 c 0,2.38867 -0.772229,4.36409 -2.316654,5.92574 -1.544489,1.56168 -3.517541,2.34249 -5.919019,2.34249 v -5.2e-4 c -2.401288,0 -4.386991,-0.78082 -5.957259,-2.34249 -1.570119,-1.56183 -2.355412,-3.53672 -2.355412,-5.92522 V 122.2375 H 59.345216 c -2.390317,0 -4.366932,-0.77177 -5.92987,-2.3151 -1.562779,-1.54334 -2.34456,-3.51506 -2.34456,-5.91489 0,-2.39866 0.781781,-4.38313 2.34456,-5.95312 1.563018,-1.56834 3.539643,-2.35231 5.92987,-2.35231 H 75.893044 V 89.165619 c 0,-2.388838 0.772226,-4.364068 2.316654,-5.925737 1.544499,-1.561658 3.517551,-2.342492 5.919019,-2.342492 z m 117.190263,29.65969 a 59.266666,59.266666 0 0 0 -2.90111,0.63097 59.266666,59.266666 0 0 1 2.90111,-0.63097 z m 21.10207,0.0884 a 59.266666,59.266666 0 0 1 2.80965,0.61133 59.266666,59.266666 0 0 0 -2.80965,-0.61133 z m -31.69832,2.87682 a 59.266666,59.266666 0 0 0 -2.4846,0.92656 59.266666,59.266666 0 0 1 2.4846,-0.92656 z m 43.32345,0.53537 a 59.266666,59.266666 0 0 1 1.60611,0.59893 59.266666,59.266666 0 0 0 -1.60611,-0.59893 z m -54.92068,5.26169 a 59.266666,59.266666 0 0 0 -1.53013,1.14567 59.266666,59.266666 0 0 1 1.53013,-1.14567 z m 65.90554,0.6165 a 59.266666,59.266666 0 0 1 2.06655,1.54668 59.266666,59.266666 0 0 0 -2.06655,-1.54668 z m -74.08178,5.98362 a 59.266666,59.266666 0 0 0 -2.16679,2.16679 59.266666,59.266666 0 0 1 2.16679,-2.16679 z m 82.83577,1.40095 a 59.266666,59.266666 0 0 1 1.69241,1.6924 59.266666,59.266666 0 0 0 -1.69241,-1.6924 z m -90.46218,7.41867 a 59.266666,59.266666 0 0 0 -1.13895,1.52135 59.266666,59.266666 0 0 1 1.13895,-1.52135 z m 54.27059,0.19843 h 10.06554 c 1.75605,0 3.2455,0.61155 4.46846,1.83452 1.22296,1.22296 1.83451,2.7124 1.83451,4.46846 0,1.75602 -0.61155,3.26114 -1.83451,4.51548 -1.22296,1.2543 -2.71241,1.88154 -4.46846,1.88154 h -10.06554 v 40.92257 c 0,3.95111 -1.36411,7.2904 -4.09225,10.01851 -2.72814,2.72815 -6.06793,4.09226 -10.01903,4.09226 -3.95111,0 -7.29088,-1.36411 -10.01903,-4.09226 -2.72814,-2.72811 -4.09226,-6.0674 -4.09226,-10.01851 0,-3.9511 1.36412,-7.29087 4.09226,-10.01903 2.72815,-2.72814 6.06792,-4.09225 10.01903,-4.09225 1.75605,0 3.3395,0.25065 4.75061,0.75241 1.41111,0.50171 2.6499,1.19161 3.71606,2.06964 v -36.68872 c 0,-1.56789 0.54887,-2.90068 1.64641,-3.99821 1.09752,-1.09752 2.4303,-1.64641 3.9982,-1.64641 z m -60.28314,10.44123 a 59.266666,59.266666 0 0 0 -0.92346,2.47581 59.266666,59.266666 0 0 1 0.92346,-2.47581 z m -3.25975,10.17612 a 59.266666,59.266666 0 0 0 -0.63149,2.90215 59.266666,59.266666 0 0 1 0.63149,-2.90215 z" /></g></svg>
