<svg width="1024" height="1024" viewBox="0 0 270.933 270.933" xml:space="preserve" xmlns="http://www.w3.org/2000/svg"><path style="fill:#000;fill-opacity:1;stroke-width:.330848" d="M63.979 42.863c-11.695 0-22.12 4.189-31.277 12.567-9.156 8.379-14.617 18.41-16.383 30.097L.433 196.32c-1.324 9.922.386 17.694 5.13 23.316 4.744 5.623 11.308 8.434 19.693 8.434 5.075 0 9.377-.827 12.907-2.48 3.53-1.654 6.51-3.693 8.936-6.119l34.42-34.395h73.19a59.267 59.267 0 0 0 56.958 42.994 59.267 59.267 0 0 0 59.266-59.267 59.267 59.267 0 0 0-8.944-31.192 59.267 59.267 0 0 1 .33.435l-7.374-52.52c-1.765-11.686-7.226-21.718-16.383-30.097-9.156-8.378-19.582-12.567-31.276-12.567Zm116.168 36.38c3.53 0 6.619 1.323 9.267 3.968 2.647 2.646 3.972 5.733 3.972 9.26 0 3.529-1.325 6.615-3.972 9.261-2.648 2.646-5.737 3.969-9.267 3.969-3.53 0-6.62-1.323-9.267-3.969-2.648-2.646-3.972-5.732-3.972-9.26 0-3.528 1.324-6.615 3.972-9.26 2.648-2.646 5.736-3.97 9.267-3.97zm-96.018 1.654c2.401 0 4.387.781 5.957 2.343 1.57 1.562 2.355 3.537 2.355 5.926v16.536h16.548c2.39 0 4.368.772 5.93 2.315 1.563 1.544 2.345 3.515 2.345 5.915 0 2.398-.782 4.383-2.344 5.953-1.563 1.569-3.54 2.352-5.93 2.352H92.44v16.537c0 2.389-.772 4.364-2.316 5.926-1.545 1.561-3.518 2.342-5.92 2.342-2.4 0-4.386-.781-5.957-2.343-1.57-1.562-2.355-3.537-2.355-5.925v-16.537H59.345c-2.39 0-4.367-.771-5.93-2.315-1.562-1.543-2.344-3.515-2.344-5.914 0-2.4.782-4.384 2.344-5.954 1.563-1.568 3.54-2.352 5.93-2.352h16.548V89.166c0-2.39.772-4.364 2.317-5.926 1.544-1.562 3.517-2.343 5.919-2.343zm117.19 29.66a59.267 59.267 0 0 0-2.901.631 59.267 59.267 0 0 1 2.901-.63zm21.102.088a59.267 59.267 0 0 1 2.81.612 59.267 59.267 0 0 0-2.81-.612zm-31.698 2.877a59.267 59.267 0 0 0-2.485.927 59.267 59.267 0 0 1 2.485-.927zm43.323.536a59.267 59.267 0 0 1 1.606.599 59.267 59.267 0 0 0-1.606-.6zm-54.92 5.261a59.267 59.267 0 0 0-1.53 1.146 59.267 59.267 0 0 1 1.53-1.146zm65.905.617a59.267 59.267 0 0 1 2.067 1.547 59.267 59.267 0 0 0-2.067-1.547zm-74.082 5.983a59.267 59.267 0 0 0-2.167 2.167 59.267 59.267 0 0 1 2.167-2.167zm82.836 1.401a59.267 59.267 0 0 1 1.692 1.693 59.267 59.267 0 0 0-1.692-1.693zm-90.462 7.42a59.267 59.267 0 0 0-1.14 1.52 59.267 59.267 0 0 1 1.14-1.52zm54.27.198h10.066c1.756 0 3.245.611 4.468 1.834 1.223 1.223 1.835 2.712 1.835 4.469 0 1.756-.612 3.26-1.835 4.515-1.223 1.254-2.712 1.882-4.468 1.882h-10.066v40.922c0 3.951-1.364 7.29-4.092 10.019-2.728 2.728-6.068 4.092-10.019 4.092-3.95 0-7.29-1.364-10.019-4.092-2.728-2.729-4.092-6.068-4.092-10.019 0-3.951 1.364-7.29 4.092-10.019 2.728-2.728 6.068-4.092 10.02-4.092 1.755 0 3.339.25 4.75.752 1.41.502 2.65 1.192 3.716 2.07v-36.689c0-1.568.549-2.9 1.646-3.998 1.098-1.098 2.43-1.646 3.998-1.646zm-60.283 10.44a59.267 59.267 0 0 0-.923 2.477 59.267 59.267 0 0 1 .923-2.476zm-3.26 10.177a59.267 59.267 0 0 0-.63 2.902 59.267 59.267 0 0 1 .63-2.902z"/></svg>