<svg width="1024" height="1024" viewBox="0 0 270.933 270.933" xml:space="preserve" xmlns="http://www.w3.org/2000/svg"><path style="fill:#021848;fill-opacity:1;stroke-width:.330848" d="M63.979 85.725c-11.694 0-22.12 4.19-31.276 12.568-9.157 8.378-14.618 18.41-16.383 30.096L.433 239.183c-1.324 9.922.386 17.694 5.13 23.317 4.744 5.622 11.309 8.433 19.693 8.433 5.075 0 9.377-.826 12.907-2.48 3.53-1.653 6.51-3.693 8.937-6.118l34.42-34.396h73.234a59.267 59.267 0 0 1-2.354-16.272 59.267 59.267 0 0 1 59.267-59.267 59.267 59.267 0 0 1 50.652 28.51l-7.374-52.52c-1.765-11.687-7.226-21.719-16.383-30.097-9.156-8.379-19.582-12.568-31.276-12.568Zm116.168 36.38c3.53 0 6.62 1.323 9.267 3.969 2.648 2.646 3.972 5.733 3.972 9.26 0 3.528-1.324 6.615-3.972 9.26-2.648 2.647-5.737 3.97-9.267 3.97-3.53 0-6.62-1.323-9.267-3.97-2.647-2.645-3.972-5.732-3.972-9.26 0-3.527 1.325-6.614 3.972-9.26 2.648-2.646 5.737-3.969 9.267-3.969zm-96.018 1.655c2.401 0 4.387.78 5.957 2.342 1.57 1.562 2.356 3.538 2.356 5.926v16.537h16.547c2.39 0 4.368.771 5.93 2.315 1.564 1.543 2.345 3.514 2.345 5.914 0 2.399-.781 4.384-2.344 5.954-1.563 1.568-3.54 2.352-5.93 2.352H92.441v16.536c0 2.39-.773 4.365-2.317 5.926-1.545 1.562-3.518 2.343-5.92 2.343-2.4 0-4.386-.782-5.956-2.343-1.57-1.562-2.356-3.537-2.356-5.926V165.1H59.345c-2.39 0-4.366-.772-5.93-2.315-1.562-1.543-2.344-3.515-2.344-5.915 0-2.399.782-4.383 2.345-5.953 1.563-1.568 3.54-2.352 5.93-2.352h16.547v-16.537c0-2.389.772-4.364 2.317-5.926 1.544-1.561 3.517-2.342 5.919-2.342z" transform="translate(0 -42.863)"/><path style="fill:#ff7100;fill-opacity:1;stroke-width:.313368" d="M211.667 152.4a59.267 59.267 0 0 0-59.267 59.267 59.267 59.267 0 0 0 59.267 59.266 59.267 59.267 0 0 0 59.266-59.266 59.267 59.267 0 0 0-59.266-59.267Zm5.926 25.4h10.066c1.756 0 3.245.612 4.468 1.835 1.223 1.222 1.835 2.712 1.835 4.468 0 1.756-.612 3.261-1.835 4.515-1.223 1.255-2.712 1.882-4.468 1.882h-10.066v40.923c0 3.95-1.364 7.29-4.092 10.018-2.728 2.728-6.068 4.092-10.019 4.092-3.951 0-7.29-1.364-10.019-4.092-2.728-2.728-4.092-6.067-4.092-10.018 0-3.952 1.364-7.291 4.092-10.02 2.728-2.728 6.068-4.092 10.02-4.092 1.755 0 3.339.25 4.75.753 1.41.501 2.65 1.191 3.716 2.07v-36.69c0-1.567.549-2.9 1.646-3.998 1.098-1.097 2.43-1.646 3.998-1.646z" transform="translate(0 -42.863)"/></svg>