<?xml version="1.0" encoding="UTF-8" standalone="no"?>
<!-- Created with Inkscape (http://www.inkscape.org/) -->

<svg
   width="1024"
   height="1024"
   viewBox="0 0 270.93334 270.93334"
   version="1.1"
   id="svg5"
   xml:space="preserve"
   inkscape:version="1.3 (0e150ed6c4, 2023-07-21)"
   sodipodi:docname="app_icon-monochrome-original.svg"
   inkscape:export-filename="app_icon-monochrome-exported.svg"
   inkscape:export-xdpi="96"
   inkscape:export-ydpi="96"
   xmlns:inkscape="http://www.inkscape.org/namespaces/inkscape"
   xmlns:sodipodi="http://sodipodi.sourceforge.net/DTD/sodipodi-0.dtd"
   xmlns="http://www.w3.org/2000/svg"
   xmlns:svg="http://www.w3.org/2000/svg"><sodipodi:namedview
     id="namedview7"
     pagecolor="#ffffff"
     bordercolor="#000000"
     borderopacity="0.25"
     inkscape:showpageshadow="2"
     inkscape:pageopacity="0.0"
     inkscape:pagecheckerboard="false"
     inkscape:deskcolor="#d1d1d1"
     inkscape:document-units="px"
     showgrid="false"
     inkscape:zoom="0.51276154"
     inkscape:cx="288.63319"
     inkscape:cy="570.4406"
     inkscape:window-width="1920"
     inkscape:window-height="1011"
     inkscape:window-x="0"
     inkscape:window-y="0"
     inkscape:window-maximized="1"
     inkscape:current-layer="layer1"
     showguides="true" /><defs
     id="defs2" /><g
     inkscape:label="Camada 1"
     inkscape:groupmode="layer"
     id="layer1"><path
       id="path205"
       style="fill:#000000;fill-opacity:1;stroke-width:0.330848"
       d="M 63.978525 42.862501 C 52.284467 42.862501 41.859048 47.051725 32.702397 55.43021 C 23.545727 63.808526 18.084546 73.840736 16.319418 85.526565 L 0.43304851 196.32084 C -0.89081016 206.24266 0.81915317 214.01475 5.5629681 219.63724 C 10.306773 225.25957 16.871402 228.07084 25.255823 228.07084 C 30.330588 228.07084 34.63276 227.24422 38.163046 225.59089 C 41.693323 223.93723 44.672384 221.89772 47.099452 219.4724 L 81.519574 185.07656 L 154.70839 185.07656 A 59.266666 59.266666 0 0 0 211.66667 228.07084 A 59.266666 59.266666 0 0 0 270.93334 168.80417 A 59.266666 59.266666 0 0 0 261.98918 137.61228 A 59.266666 59.266666 0 0 1 262.31836 138.04687 L 254.94465 85.526565 C 253.17951 73.840736 247.71887 63.808526 238.56219 55.43021 C 229.40555 47.051725 218.98011 42.862501 207.28606 42.862501 L 63.978525 42.862501 z M 180.14663 79.24271 C 183.6769 79.24271 186.76605 80.565633 189.41377 83.21146 C 192.06147 85.857288 193.38562 88.944211 193.38562 92.471877 C 193.38562 95.999704 192.06147 99.086465 189.41377 101.73229 C 186.76605 104.37812 183.6769 105.70104 180.14663 105.70104 C 176.61634 105.70104 173.52773 104.37812 170.88001 101.73229 C 168.23231 99.086465 166.90816 95.999704 166.90816 92.471877 C 166.90816 88.944211 168.23231 85.857288 170.88001 83.21146 C 173.52773 80.565633 176.61634 79.24271 180.14663 79.24271 z M 84.128717 80.89739 C 86.529995 80.89739 88.515698 81.678224 90.085976 83.239882 C 91.656082 84.801881 92.441388 86.777111 92.441388 89.165619 L 92.441388 105.70208 L 108.98922 105.70208 C 111.37952 105.70208 113.35665 106.47385 114.9196 108.01718 C 116.48237 109.56068 117.26365 111.53188 117.26365 113.93155 C 117.26365 116.33038 116.48237 118.3152 114.9196 119.88519 C 113.35655 121.45353 111.37942 122.2375 108.98922 122.2375 L 92.441388 122.2375 L 92.441388 138.77396 C 92.441388 141.16263 91.669159 143.13805 90.124734 144.6997 C 88.580245 146.26138 86.607193 147.04219 84.205715 147.04219 L 84.205715 147.04167 C 81.804427 147.04167 79.818724 146.26085 78.248456 144.69918 C 76.678337 143.13735 75.893044 141.16246 75.893044 138.77396 L 75.893044 122.2375 L 59.345216 122.2375 C 56.954899 122.2375 54.978284 121.46573 53.415346 119.9224 C 51.852567 118.37906 51.070786 116.40734 51.070786 114.00751 C 51.070786 111.60885 51.852567 109.62438 53.415346 108.05439 C 54.978364 106.48605 56.954989 105.70208 59.345216 105.70208 L 75.893044 105.70208 L 75.893044 89.165619 C 75.893044 86.776781 76.66527 84.801551 78.209698 83.239882 C 79.754197 81.678224 81.727249 80.89739 84.128717 80.89739 z M 201.31898 110.55708 A 59.266666 59.266666 0 0 0 198.41787 111.18805 A 59.266666 59.266666 0 0 1 201.31898 110.55708 z M 222.42105 110.64545 A 59.266666 59.266666 0 0 1 225.2307 111.25678 A 59.266666 59.266666 0 0 0 222.42105 110.64545 z M 190.72273 113.52227 A 59.266666 59.266666 0 0 0 188.23813 114.44883 A 59.266666 59.266666 0 0 1 190.72273 113.52227 z M 234.04618 114.05764 A 59.266666 59.266666 0 0 1 235.65229 114.65657 A 59.266666 59.266666 0 0 0 234.04618 114.05764 z M 179.1255 119.31933 A 59.266666 59.266666 0 0 0 177.59537 120.465 A 59.266666 59.266666 0 0 1 179.1255 119.31933 z M 245.03104 119.93583 A 59.266666 59.266666 0 0 1 247.09759 121.48251 A 59.266666 59.266666 0 0 0 245.03104 119.93583 z M 170.94926 125.91945 A 59.266666 59.266666 0 0 0 168.78247 128.08624 A 59.266666 59.266666 0 0 1 170.94926 125.91945 z M 253.78503 127.3204 A 59.266666 59.266666 0 0 1 255.47744 129.0128 A 59.266666 59.266666 0 0 0 253.78503 127.3204 z M 163.32285 134.73907 A 59.266666 59.266666 0 0 0 162.1839 136.26042 A 59.266666 59.266666 0 0 1 163.32285 134.73907 z M 217.59344 134.9375 L 227.65898 134.9375 C 229.41503 134.9375 230.90448 135.54905 232.12744 136.77202 C 233.3504 137.99498 233.96195 139.48442 233.96195 141.24048 C 233.96195 142.9965 233.3504 144.50162 232.12744 145.75596 C 230.90448 147.01026 229.41503 147.6375 227.65898 147.6375 L 217.59344 147.6375 L 217.59344 188.56007 C 217.59344 192.51118 216.22933 195.85047 213.50119 198.57858 C 210.77305 201.30673 207.43326 202.67084 203.48216 202.67084 C 199.53105 202.67084 196.19128 201.30673 193.46313 198.57858 C 190.73499 195.85047 189.37087 192.51118 189.37087 188.56007 C 189.37087 184.60897 190.73499 181.2692 193.46313 178.54104 C 196.19128 175.8129 199.53105 174.44879 203.48216 174.44879 C 205.23821 174.44879 206.82166 174.69944 208.23277 175.2012 C 209.64388 175.70291 210.88267 176.39281 211.94883 177.27084 L 211.94883 140.58212 C 211.94883 139.01423 212.4977 137.68144 213.59524 136.58391 C 214.69276 135.48639 216.02554 134.9375 217.59344 134.9375 z M 157.3103 145.37873 A 59.266666 59.266666 0 0 0 156.38684 147.85454 A 59.266666 59.266666 0 0 1 157.3103 145.37873 z M 154.05055 155.55485 A 59.266666 59.266666 0 0 0 153.41906 158.457 A 59.266666 59.266666 0 0 1 154.05055 155.55485 z " /></g></svg>
