<svg xml:space="preserve" viewBox="0 0 197.379 135.467"><path d="M166.93 121.444q-2.316 0-3.914-1.599-1.599-1.598-1.599-3.913 0-2.315 1.599-3.914 1.598-1.598 3.914-1.598 1.028 0 1.855.294t1.452.808V97.19q0-.918.643-1.561.643-.643 1.562-.643h3.932q1.029 0 1.745.716.717.717.717 1.746t-.717 1.764q-.716.735-1.745.735h-3.932v15.985q0 2.315-1.599 3.913-1.598 1.599-3.913 1.599zM46.762 0c-8.547 0-16.167 3.064-22.86 9.192-6.693 6.129-10.684 13.467-11.975 22.014L.317 112.244c-.968 7.257.282 12.942 3.749 17.054 3.467 4.113 8.265 6.169 14.393 6.169 3.71 0 6.854-.605 9.434-1.815 2.58-1.21 4.758-2.7 6.532-4.475l25.158-25.158h78.86l2.974 2.974a28.31 28.31 0 0 1 .232-3.532 28.31 28.31 0 0 1 .722-3.632 28.31 28.31 0 0 1 1.19-3.507 28.31 28.31 0 0 1 1.638-3.32 28.31 28.31 0 0 1 2.058-3.08 28.31 28.31 0 0 1 2.441-2.784 28.31 28.31 0 0 1 2.785-2.442 28.31 28.31 0 0 1 3.079-2.057 28.31 28.31 0 0 1 3.32-1.638 28.31 28.31 0 0 1 3.508-1.19 28.31 28.31 0 0 1 3.631-.723 28.31 28.31 0 0 1 3.696-.242 28.31 28.31 0 0 1 1.235.027 28.31 28.31 0 0 1 1.232.08 28.31 28.31 0 0 1 1.228.135 28.31 28.31 0 0 1 1.22.188 28.31 28.31 0 0 1 1.213.241 28.31 28.31 0 0 1 1.199.294 28.31 28.31 0 0 1 1.186.346 28.31 28.31 0 0 1 1.17.396 28.31 28.31 0 0 1 1.15.448 28.31 28.31 0 0 1 1.131.498 28.31 28.31 0 0 1 1.108.546 28.31 28.31 0 0 1 1.083.594 28.31 28.31 0 0 1 1.056.64 28.31 28.31 0 0 1 1.027.687 28.31 28.31 0 0 1 .996.73 28.31 28.31 0 0 1 .964.773 28.31 28.31 0 0 1 .928.815 28.31 28.31 0 0 1 .892.854 28.31 28.31 0 0 1 .854.892 28.31 28.31 0 0 1 .815.93 28.31 28.31 0 0 1 .773.962 28.31 28.31 0 0 1 .73.996 28.31 28.31 0 0 1 .687 1.027 28.31 28.31 0 0 1 .64 1.056 28.31 28.31 0 0 1 .594 1.083 28.31 28.31 0 0 1 .468.947l-8.955-63.825c-1.29-8.547-5.282-15.885-11.974-22.014C167.674 3.064 160.054 0 151.507 0zm84.909 26.61c2.58 0 4.838.967 6.773 2.903 1.935 1.935 2.902 4.193 2.902 6.773s-.967 4.838-2.902 6.773c-1.935 1.935-4.193 2.903-6.773 2.903s-4.838-.968-6.774-2.903c-1.935-1.935-2.903-4.193-2.903-6.773s.968-4.838 2.903-6.773c1.936-1.936 4.193-2.903 6.774-2.903zm-70.153 1.21c1.774 0 3.226.564 4.354 1.693 1.13 1.128 1.693 2.58 1.693 4.354v12.095h12.096c1.774 0 3.225.565 4.354 1.694s1.693 2.58 1.693 4.354-.564 3.225-1.693 4.354-2.58 1.694-4.354 1.694H67.565v12.094c0 1.774-.564 3.226-1.693 4.355-1.128 1.129-2.58 1.693-4.354 1.693s-3.225-.564-4.354-1.693c-1.129-1.13-1.693-2.58-1.693-4.355V58.058H43.375c-1.774 0-3.225-.565-4.354-1.694s-1.694-2.58-1.694-4.354.565-3.226 1.694-4.354c1.129-1.13 2.58-1.694 4.354-1.694h12.096V33.867c0-1.774.564-3.226 1.693-4.354 1.129-1.13 2.58-1.693 4.354-1.693zm108.609 53.142a27.252 27.252 0 0 0-27.253 27.252 27.252 27.252 0 0 0 27.253 27.252 27.252 27.252 0 0 0 27.252-27.252 27.252 27.252 0 0 0-27.252-27.252zm0 10.583a16.669 16.669 0 0 1 16.668 16.669 16.669 16.669 0 0 1-16.668 16.668 16.669 16.669 0 0 1-16.67-16.668 16.669 16.669 0 0 1 16.67-16.669zm-17.895-33.489c2.58 0 4.839.968 6.774 2.903 1.935 1.935 2.902 4.193 2.902 6.773s-.967 4.838-2.902 6.774c-1.935 1.935-4.194 2.903-6.774 2.903s-4.838-.968-6.773-2.903c-1.935-1.936-2.903-4.193-2.903-6.774 0-2.58.968-4.838 2.903-6.773 1.935-1.935 4.193-2.903 6.773-2.903z"/></svg>