<?xml version="1.0" encoding="UTF-8" standalone="no"?>
<!-- Created with Inkscape (http://www.inkscape.org/) -->

<svg
   width="198.0278mm"
   height="135.46667mm"
   viewBox="0 0 198.0278 135.46668"
   version="1.1"
   id="svg5"
   xml:space="preserve"
   inkscape:version="1.2.2 (732a01da63, 2022-12-09)"
   sodipodi:docname="vidya_music.svg"
   inkscape:export-filename="svg_vm.svg"
   inkscape:export-xdpi="96"
   inkscape:export-ydpi="96"
   xmlns:inkscape="http://www.inkscape.org/namespaces/inkscape"
   xmlns:sodipodi="http://sodipodi.sourceforge.net/DTD/sodipodi-0.dtd"
   xmlns="http://www.w3.org/2000/svg"
   xmlns:svg="http://www.w3.org/2000/svg"><sodipodi:namedview
     id="namedview7"
     pagecolor="#ffffff"
     bordercolor="#000000"
     borderopacity="0.25"
     inkscape:showpageshadow="2"
     inkscape:pageopacity="0.0"
     inkscape:pagecheckerboard="0"
     inkscape:deskcolor="#d1d1d1"
     inkscape:document-units="mm"
     showgrid="false"
     inkscape:zoom="0.70710678"
     inkscape:cx="106.77312"
     inkscape:cy="402.34376"
     inkscape:window-width="1920"
     inkscape:window-height="1001"
     inkscape:window-x="-9"
     inkscape:window-y="-9"
     inkscape:window-maximized="1"
     inkscape:current-layer="layer1"
     showguides="true"><sodipodi:guide
       position="100.48829,-110.80932"
       orientation="0,-1"
       id="guide236"
       inkscape:locked="false" /><sodipodi:guide
       position="125.27127,-107.66532"
       orientation="1,0"
       id="guide238"
       inkscape:locked="false" /></sodipodi:namedview><defs
     id="defs2" /><g
     inkscape:label="Camada 1"
     inkscape:groupmode="layer"
     id="layer1"
     transform="translate(37.157506,-75.668159)"><path
       id="path328"
       style="stroke-width:0.734953"
       d="m 129.77253,197.11191 q -2.3151,0 -3.91362,-1.59853 -1.59854,-1.5985 -1.59854,-3.9136 0,-2.31512 1.59854,-3.91364 1.59852,-1.59853 3.91362,-1.59853 1.02893,0 1.85575,0.294 0.82684,0.29397 1.45154,0.80843 v -14.3316 q 0,-0.9187 0.64308,-1.56177 0.64307,-0.64309 1.56178,-0.64309 h 3.932 q 1.02894,0 1.74552,0.71659 0.71658,0.71657 0.71658,1.74552 0,1.02892 -0.71658,1.76389 -0.71658,0.73494 -1.74552,0.73494 h -3.932 v 15.98526 q 0,2.3151 -1.59853,3.9136 -1.5985,1.59853 -3.91362,1.59853 z M 9.6050143,75.668159 c -8.547343,0 -16.1674173,3.063949 -22.8601033,9.192204 -6.692686,6.128243 -10.684346,13.466348 -11.974463,22.013647 l -11.611177,81.03794 c -0.96768,7.25713 0.282308,12.94188 3.749641,17.05426 3.467334,4.11238 8.265169,6.16862 14.393437,6.16862 3.709192,0 6.853816,-0.60483 9.4340496,-1.81436 2.5803553,-1.20953 4.7574281,-2.70121 6.5313843,-4.47518 L 22.425937,179.68713 h 78.860823 l 2.97346,2.97346 a 28.310417,28.310417 0 0 1 0.23151,-3.53156 28.310417,28.310417 0 0 1 0.72244,-3.63182 28.310417,28.310417 0 0 1 1.1901,-3.50677 28.310417,28.310417 0 0 1 1.63815,-3.32124 28.310417,28.310417 0 0 1 2.05724,-3.07888 28.310417,28.310417 0 0 1 2.44171,-2.78433 28.310417,28.310417 0 0 1 2.78432,-2.44171 28.310417,28.310417 0 0 1 3.07888,-2.05724 28.310417,28.310417 0 0 1 3.32125,-1.63814 28.310417,28.310417 0 0 1 3.50676,-1.19011 28.310417,28.310417 0 0 1 3.63182,-0.72244 28.310417,28.310417 0 0 1 3.69538,-0.24236 28.310417,28.310417 0 0 1 1.23507,0.0269 28.310417,28.310417 0 0 1 1.23248,0.0806 28.310417,28.310417 0 0 1 1.22783,0.13487 28.310417,28.310417 0 0 1 1.2206,0.18759 28.310417,28.310417 0 0 1 1.21181,0.24133 28.310417,28.310417 0 0 1 1.19941,0.29352 28.310417,28.310417 0 0 1 1.18598,0.34572 28.310417,28.310417 0 0 1 1.16944,0.39687 28.310417,28.310417 0 0 1 1.15135,0.44752 28.310417,28.310417 0 0 1 1.13068,0.49764 28.310417,28.310417 0 0 1 1.10794,0.54622 28.310417,28.310417 0 0 1 1.08262,0.59428 28.310417,28.310417 0 0 1 1.05627,0.64079 28.310417,28.310417 0 0 1 1.02681,0.68626 28.310417,28.310417 0 0 1 0.99632,0.73019 28.310417,28.310417 0 0 1 0.96325,0.77308 28.310417,28.310417 0 0 1 0.92862,0.81442 28.310417,28.310417 0 0 1 0.89194,0.85421 28.310417,28.310417 0 0 1 0.85421,0.89194 28.310417,28.310417 0 0 1 0.81442,0.92914 28.310417,28.310417 0 0 1 0.77308,0.96325 28.310417,28.310417 0 0 1 0.73071,0.9958 28.310417,28.310417 0 0 1 0.68626,1.02733 28.310417,28.310417 0 0 1 0.64079,1.05575 28.310417,28.310417 0 0 1 0.59376,1.08314 28.310417,28.310417 0 0 1 0.46715,0.94671 l -8.95501,-63.82504 c -1.29011,-8.547299 -5.28125,-15.885404 -11.97394,-22.013647 -6.69269,-6.128255 -14.31277,-9.192204 -22.8601,-9.192204 z M 94.513527,102.2779 c 2.580355,0 4.837996,0.96743 6.773233,2.90267 1.93523,1.93524 2.90266,4.19293 2.90266,6.77323 0,2.58032 -0.96743,4.83799 -2.90266,6.77323 -1.935237,1.93524 -4.192878,2.90318 -6.773233,2.90318 -2.580234,0 -4.837994,-0.96794 -6.77323,-2.90318 -1.935236,-1.93524 -2.903182,-4.19291 -2.903182,-6.77323 0,-2.5803 0.967946,-4.83799 2.903182,-6.77323 1.935236,-1.93524 4.192996,-2.90267 6.77323,-2.90267 z m -70.152307,1.20975 c 1.773956,0 3.225419,0.56408 4.354256,1.69292 1.128837,1.12889 1.69292,2.58029 1.69292,4.35426 v 12.09538 h 12.095385 c 1.774079,0 3.22542,0.56461 4.354257,1.69344 1.128836,1.12888 1.693436,2.58028 1.693436,4.35425 0,1.77402 -0.5646,3.22543 -1.693436,4.35426 -1.128837,1.12884 -2.580178,1.69344 -4.354257,1.69344 H 30.408396 v 12.09487 c 0,1.77401 -0.564083,3.22542 -1.69292,4.35425 -1.128837,1.12884 -2.5803,1.69344 -4.354256,1.69344 -1.774079,0 -3.22542,-0.5646 -4.354257,-1.69344 -1.128836,-1.12889 -1.693436,-2.5803 -1.693436,-4.35425 V 133.7256 H 6.218141 c -1.7740781,0 -3.2254193,-0.5646 -4.3542562,-1.69344 -1.12883686,-1.12889 -1.6934367,-2.58029 -1.6934367,-4.35426 0,-1.77401 0.56459984,-3.22541 1.6934367,-4.35425 1.1289588,-1.12883 2.5803,-1.69344 4.3542562,-1.69344 h 12.095386 v -12.09538 c 0,-1.77402 0.5646,-3.22542 1.693436,-4.35426 1.128959,-1.12884 2.5803,-1.69292 4.354257,-1.69292 z m 108.60836,53.14301 a 27.252083,27.252083 0 0 0 -27.25209,27.25208 27.252083,27.252083 0 0 0 27.25209,27.25209 27.252083,27.252083 0 0 0 27.25208,-27.25209 27.252083,27.252083 0 0 0 -27.25208,-27.25208 z m 0,10.58333 a 16.668751,16.668751 0 0 1 16.66875,16.66875 16.668751,16.668751 0 0 1 -16.66875,16.66875 16.668751,16.668751 0 0 1 -16.66875,-16.66875 16.668751,16.668751 0 0 1 16.66875,-16.66875 z m -17.89452,-33.48891 c 2.58035,0 4.83851,0.96795 6.77375,2.90318 1.93524,1.93524 2.90266,4.19291 2.90266,6.77323 0,2.58032 -0.96742,4.83799 -2.90266,6.77323 -1.93524,1.93524 -4.1934,2.90318 -6.77375,2.90318 -2.58024,0 -4.838,-0.96794 -6.77323,-2.90318 -1.93524,-1.93524 -2.90266,-4.19291 -2.90266,-6.77323 0,-2.58032 0.96742,-4.83799 2.90266,-6.77323 1.93523,-1.93523 4.19299,-2.90318 6.77323,-2.90318 z" /></g></svg>
