<?xml version="1.0" encoding="UTF-8" standalone="no"?>
<!-- Created with Inkscape (http://www.inkscape.org/) -->

<svg
   version="1.1"
   id="svg1804"
   width="1024"
   height="500"
   viewBox="0 0 1024 500"
   sodipodi:docname="vidya_music_banner_original.svg"
   inkscape:version="1.2.2 (b0a8486541, 2022-12-01)"
   xml:space="preserve"
   inkscape:export-filename="vidya_music_banner.png"
   inkscape:export-xdpi="96"
   inkscape:export-ydpi="96"
   xmlns:inkscape="http://www.inkscape.org/namespaces/inkscape"
   xmlns:sodipodi="http://sodipodi.sourceforge.net/DTD/sodipodi-0.dtd"
   xmlns="http://www.w3.org/2000/svg"
   xmlns:svg="http://www.w3.org/2000/svg"><defs
     id="defs1808" /><sodipodi:namedview
     id="namedview1806"
     pagecolor="#ffffff"
     bordercolor="#000000"
     borderopacity="0.25"
     inkscape:showpageshadow="2"
     inkscape:pageopacity="0.0"
     inkscape:pagecheckerboard="0"
     inkscape:deskcolor="#d1d1d1"
     showgrid="false"
     inkscape:zoom="0.73388672"
     inkscape:cx="324.30073"
     inkscape:cy="272.52162"
     inkscape:window-width="1920"
     inkscape:window-height="1011"
     inkscape:window-x="0"
     inkscape:window-y="0"
     inkscape:window-maximized="1"
     inkscape:current-layer="g1810" /><g
     inkscape:groupmode="layer"
     inkscape:label="Image"
     id="g1810"><rect
       style="fill:#fafafa;fill-opacity:1"
       id="rect1925"
       width="1024"
       height="500"
       x="-2.7731204"
       y="-2.7518296" /><g
       id="g5682"><text
         xml:space="preserve"
         style="font-style:normal;font-variant:normal;font-weight:normal;font-stretch:normal;font-size:96px;font-family:'Fira Sans';-inkscape-font-specification:'Fira Sans';fill:#000000;fill-opacity:1"
         x="416.73599"
         y="277.216"
         id="text2461"><tspan
           sodipodi:role="line"
           id="tspan2459"
           x="416.73599"
           y="277.216"
           style="font-style:normal;font-variant:normal;font-weight:normal;font-stretch:normal;font-family:'Fira Sans';-inkscape-font-specification:'Fira Sans'"><tspan
   style="font-style:normal;font-variant:normal;font-weight:normal;font-stretch:normal;font-size:96px;font-family:'Fira Sans';-inkscape-font-specification:'Fira Sans';fill:#021848;fill-opacity:1"
   id="tspan3081">Vidya</tspan> <tspan
   style="font-style:normal;font-variant:normal;font-weight:normal;font-stretch:normal;font-size:96px;font-family:'Fira Sans';-inkscape-font-specification:'Fira Sans';fill:#ff7100;fill-opacity:1"
   id="tspan8605">Music</tspan></tspan></text><g
         transform="matrix(0.9448716,0,0,0.9448535,97.311301,81.507063)"
         id="g5041"><path
           d="m 63.979,85.725 c -11.694,0 -22.119,4.1892 -31.276,12.568 -9.1567,8.3783 -14.618,18.411 -16.383,30.096 L 0.434,239.179 c -1.3239,9.9218 0.3861,17.694 5.1299,23.316 4.7438,5.6223 11.308,8.4336 19.693,8.4336 5.0748,0 9.3769,-0.82662 12.907,-2.48 3.5303,-1.6537 6.5093,-3.6932 8.9364,-6.1185 l 34.42,-34.396 h 73.234 a 59.267,59.267 0 0 1 -2.3533,-16.272 59.267,59.267 0 0 1 59.267,-59.267 59.267,59.267 0 0 1 50.652,28.509 l -7.3737,-52.52 c -1.7651,-11.686 -7.2258,-21.718 -16.382,-30.096 -9.1566,-8.3785 -19.582,-12.568 -31.276,-12.568 z m 116.17,36.38 c 3.5303,0 6.6194,1.3229 9.2671,3.9688 2.6477,2.6458 3.9718,5.7327 3.9718,9.2604 0,3.5278 -1.3241,6.6146 -3.9718,9.2604 -2.6477,2.6458 -5.7369,3.9688 -9.2671,3.9688 -3.5303,0 -6.6189,-1.3229 -9.2666,-3.9688 -2.6477,-2.6458 -3.9718,-5.7326 -3.9718,-9.2604 0,-3.5277 1.3241,-6.6146 3.9718,-9.2604 2.6477,-2.6458 5.7363,-3.9688 9.2666,-3.9688 z m -96.018,1.6547 c 2.4013,0 4.387,0.78083 5.9573,2.3425 1.5701,1.562 2.3554,3.5372 2.3554,5.9257 v 16.536 h 16.548 c 2.3903,0 4.3674,0.77177 5.9304,2.3151 1.5628,1.5435 2.344,3.5147 2.344,5.9144 0,2.3988 -0.78127,4.3836 -2.344,5.9536 -1.563,1.5683 -3.5402,2.3523 -5.9304,2.3523 h -16.548 v 16.536 c 0,2.3887 -0.77223,4.3641 -2.3167,5.9257 -1.5445,1.5617 -3.5175,2.3425 -5.919,2.3425 v -5.2e-4 c -2.4013,0 -4.387,-0.78082 -5.9572,-2.3425 -1.5701,-1.5618 -2.3554,-3.5367 -2.3554,-5.9252 v -16.536 h -16.548 c -2.3903,0 -4.3669,-0.77177 -5.9299,-2.3151 -1.5628,-1.5433 -2.3446,-3.5151 -2.3446,-5.9149 0,-2.3987 0.78178,-4.3831 2.3446,-5.9531 1.563,-1.5683 3.5396,-2.3523 5.9299,-2.3523 h 16.548 v -16.536 c 0,-2.3888 0.77223,-4.3641 2.3167,-5.9257 1.5445,-1.5617 3.5176,-2.3425 5.919,-2.3425 z"
           fill="#021848"
           stroke-width="0.33085"
           id="path5037" /><path
           d="m 211.67,152.4 a 59.267,59.267 0 0 0 -59.267,59.267 59.267,59.267 0 0 0 59.267,59.267 59.267,59.267 0 0 0 59.267,-59.267 A 59.267,59.267 0 0 0 211.67,152.4 Z m 5.9268,25.4 h 10.066 c 1.756,0 3.2455,0.61154 4.4685,1.8345 1.223,1.223 1.8345,2.7124 1.8345,4.4685 0,1.756 -0.61156,3.2611 -1.8345,4.5155 -1.223,1.2543 -2.7124,1.8815 -4.4685,1.8815 h -10.066 v 40.923 c 0,3.9511 -1.3641,7.2904 -4.0923,10.019 -2.7281,2.7282 -6.0679,4.0923 -10.019,4.0923 -3.9511,0 -7.2909,-1.3641 -10.019,-4.0923 -2.7281,-2.7281 -4.0923,-6.0674 -4.0923,-10.019 0,-3.9516 1.3641,-7.2909 4.0923,-10.019 2.7282,-2.7282 6.0679,-4.0923 10.019,-4.0923 1.756,0 3.3395,0.25065 4.7506,0.75241 1.4111,0.50171 2.6499,1.1916 3.716,2.0696 v -36.689 c 0,-1.5679 0.54887,-2.9007 1.6464,-3.9982 1.0975,-1.0975 2.4303,-1.6464 3.9982,-1.6464 z"
           fill="#ff7100"
           stroke-width="0.31337"
           id="path5039" /></g></g></g></svg>
