<?xml version="1.0" encoding="UTF-8" standalone="no"?>
<!-- Created with Inkscape (http://www.inkscape.org/) -->

<svg
   width="512"
   height="512"
   viewBox="0 0 135.46667 135.46667"
   version="1.1"
   id="svg5"
   xml:space="preserve"
   inkscape:version="1.2.2 (732a01da63, 2022-12-09)"
   sodipodi:docname="app_icon_source.svg"
   inkscape:export-filename="app_icon.png"
   inkscape:export-xdpi="96"
   inkscape:export-ydpi="96"
   xmlns:inkscape="http://www.inkscape.org/namespaces/inkscape"
   xmlns:sodipodi="http://sodipodi.sourceforge.net/DTD/sodipodi-0.dtd"
   xmlns="http://www.w3.org/2000/svg"
   xmlns:svg="http://www.w3.org/2000/svg"><sodipodi:namedview
     id="namedview7"
     pagecolor="#ffffff"
     bordercolor="#000000"
     borderopacity="0.25"
     inkscape:showpageshadow="2"
     inkscape:pageopacity="0.0"
     inkscape:pagecheckerboard="0"
     inkscape:deskcolor="#d1d1d1"
     inkscape:document-units="mm"
     showgrid="false"
     inkscape:zoom="0.51276154"
     inkscape:cx="129.68991"
     inkscape:cy="570.4406"
     inkscape:window-width="1920"
     inkscape:window-height="1001"
     inkscape:window-x="-9"
     inkscape:window-y="-9"
     inkscape:window-maximized="1"
     inkscape:current-layer="layer1" /><defs
     id="defs2" /><g
     inkscape:label="Camada 1"
     inkscape:groupmode="layer"
     id="layer1"><g
       id="g2755"
       transform="translate(4.6098104e-5,-21.398427)"><path
         id="path2385"
         style="fill:#021848;fill-opacity:1;stroke-width:3.30963"
         d="m 31.989262,42.796871 c -5.847058,0 -11.059996,2.096286 -15.638322,6.288505 -4.578326,4.192219 -7.3086896,9.211538 -8.1912313,15.058512 L 0.21652425,119.5803 c -0.66196934,4.96443 0.19328783,8.85323 2.56521815,11.66647 2.3719296,2.81316 5.6536913,4.2199 9.8459106,4.2199 2.537381,0 4.688786,-0.4135 6.45387,-1.24075 1.765167,-0.82742 3.254418,-1.84779 4.467944,-3.06132 l 17.210319,-17.21032 h 36.592598 a 29.633333,29.633333 0 0 1 -0.409277,-1.52703 29.633333,29.633333 0 0 1 -0.411861,-2.17713 29.633333,29.633333 0 0 1 -0.248564,-2.20245 29.633333,29.633333 0 0 1 -0.08268,-2.21434 29.633333,29.633333 0 0 1 0.08268,-2.21433 29.633333,29.633333 0 0 1 0.248564,-2.20245 29.633333,29.633333 0 0 1 0.411861,-2.177129 29.633333,29.633333 0 0 1 0.573608,-2.140438 29.633333,29.633333 0 0 1 0.731739,-2.091862 29.633333,29.633333 0 0 1 0.886251,-2.031401 29.633333,29.633333 0 0 1 1.035595,-1.959053 29.633333,29.633333 0 0 1 1.17874,-1.876372 29.633333,29.633333 0 0 1 1.316198,-1.782837 29.633333,29.633333 0 0 1 1.44539,-1.68 29.633333,29.633333 0 0 1 1.56683,-1.56683 29.633333,29.633333 0 0 1 1.68,-1.44539 29.633333,29.633333 0 0 1 1.782837,-1.316198 29.633333,29.633333 0 0 1 1.876372,-1.17874 29.633333,29.633333 0 0 1 1.959053,-1.035595 29.633333,29.633333 0 0 1 2.031401,-0.886251 29.633333,29.633333 0 0 1 2.091862,-0.731739 29.633333,29.633333 0 0 1 2.140438,-0.573608 29.633333,29.633333 0 0 1 2.177129,-0.411861 29.633333,29.633333 0 0 1 2.20245,-0.248564 29.633333,29.633333 0 0 1 2.21433,-0.08268 29.633333,29.633333 0 0 1 0.76326,0.0098 29.633333,29.633333 0 0 1 0.76223,0.02945 29.633333,29.633333 0 0 1 0.76171,0.04909 29.633333,29.633333 0 0 1 0.75965,0.06873 29.633333,29.633333 0 0 1 0.75809,0.08837 29.633333,29.633333 0 0 1 0.75551,0.107487 29.633333,29.633333 0 0 1 0.75241,0.127124 29.633333,29.633333 0 0 1 0.74879,0.146761 29.633333,29.633333 0 0 1 0.74466,0.165365 29.633333,29.633333 0 0 1 0.74052,0.185001 29.633333,29.633333 0 0 1 0.73536,0.203605 29.633333,29.633333 0 0 1 0.72967,0.222726 29.633333,29.633333 0 0 1 0.72398,0.241329 29.633333,29.633333 0 0 1 0.71727,0.259932 29.633333,29.633333 0 0 1 0.71055,0.278536 29.633333,29.633333 0 0 1 0.70332,0.296623 29.633333,29.633333 0 0 1 0.69505,0.314193 29.633333,29.633333 0 0 1 0.68678,0.332796 29.633333,29.633333 0 0 1 0.67799,0.349849 29.633333,29.633333 0 0 1 0.66921,0.366903 29.633333,29.633333 0 0 1 0.65888,0.384473 29.633333,29.633333 0 0 1 0.64905,0.401526 29.633333,29.633333 0 0 1 0.63872,0.417545 29.633333,29.633333 0 0 1 0.62735,0.434082 29.633333,29.633333 0 0 1 0.6165,0.450102 29.633333,29.633333 0 0 1 0.6041,0.465605 29.633333,29.633333 0 0 1 0.59221,0.481624 29.633333,29.633333 0 0 1 0.57981,0.496094 29.633333,29.633333 0 0 1 0.56638,0.51108 29.633333,29.633333 0 0 1 0.55345,0.525549 29.633333,29.633333 0 0 1 0.5395,0.539502 29.633333,29.633333 0 0 1 0.52555,0.553454 29.633333,29.633333 0 0 1 0.51108,0.566374 29.633333,29.633333 0 0 1 0.4961,0.57981 29.633333,29.633333 0 0 1 0.48162,0.592212 29.633333,29.633333 0 0 1 0.46561,0.604097 29.633333,29.633333 0 0 1 0.4501,0.6165 29.633333,29.633333 0 0 1 0.43408,0.627352 29.633333,29.633333 0 0 1 0.41755,0.638721 29.633333,29.633333 0 0 1 0.32711,0.529166 l -3.69177,-26.314673 c -0.88262,-5.846974 -3.61291,-10.866293 -8.19123,-15.058512 -4.57833,-4.192219 -9.79135,-6.288505 -15.63832,-6.288505 z m 58.08431,18.203023 c 1.765085,0 3.309457,0.662071 4.633309,1.985925 1.323858,1.323855 1.985925,2.868226 1.985925,4.633309 0,1.765167 -0.662067,3.309455 -1.985925,4.633309 -1.323852,1.323854 -2.868224,1.985926 -4.633309,1.985926 -1.765165,0 -3.309974,-0.662072 -4.633826,-1.985926 -1.323859,-1.323854 -1.985925,-2.868142 -1.985925,-4.633309 0,-1.765083 0.662066,-3.309454 1.985925,-4.633309 1.323852,-1.323854 2.868661,-1.985925 4.633826,-1.985925 z m -47.989836,0.827857 c 1.213526,0 2.206416,0.385855 2.97863,1.158068 0.772213,0.772214 1.158069,1.765104 1.158069,2.97863 v 8.273914 h 8.273913 c 1.21361,0 2.206933,0.386372 2.979146,1.158585 0.772213,0.772297 1.158069,1.765104 1.158069,2.97863 0,1.213526 -0.385856,2.206416 -1.158069,2.978629 -0.772213,0.772214 -1.765536,1.158586 -2.979146,1.158586 h -8.273913 v 8.273914 c 0,1.213532 -0.385856,2.206417 -1.158069,2.978629 -0.772214,0.772213 -1.765104,1.158586 -2.97863,1.158586 -1.213609,0 -2.206416,-0.386373 -2.978629,-1.158586 -0.772214,-0.772212 -1.158586,-1.765097 -1.158586,-2.978629 v -8.273914 h -8.273914 c -1.213609,0 -2.206933,-0.386372 -2.979146,-1.158586 -0.772214,-0.772213 -1.158069,-1.765103 -1.158069,-2.978629 0,-1.21361 0.385855,-2.206416 1.158069,-2.97863 0.772297,-0.772213 1.76562,-1.158585 2.979146,-1.158585 h 8.273914 v -8.273914 c 0,-1.213526 0.386372,-2.206416 1.158586,-2.97863 0.772296,-0.772213 1.765103,-1.158068 2.978629,-1.158068 z" /><path
         id="path2381"
         style="fill:#ff7100;fill-opacity:1;stroke-width:0.23151"
         d="M 105.83333,76.2 A 29.633333,29.633333 0 0 0 76.2,105.83333 29.633333,29.633333 0 0 0 105.83333,135.46667 29.633333,29.633333 0 0 0 135.46667,105.83333 29.633333,29.633333 0 0 0 105.83333,76.2 Z m 2.96313,12.7 h 5.03328 c 0.87804,0 1.6225,0.305771 2.23398,0.917257 0.61148,0.61148 0.91725,1.356456 0.91725,2.234489 0,0.878011 -0.30577,1.63057 -0.91725,2.257743 -0.61148,0.627153 -1.35594,0.940511 -2.23398,0.940511 h -5.03328 v 20.46128 c 0,1.97553 -0.68181,3.64544 -2.04587,5.00952 -1.36408,1.36408 -3.03397,2.04587 -5.00951,2.04587 -1.975566,0 -3.645445,-0.68179 -5.009517,-2.04587 -1.364073,-1.36408 -2.04587,-3.03399 -2.04587,-5.00952 0,-1.97555 0.681797,-3.64542 2.04587,-5.00951 1.364072,-1.36406 3.033951,-2.04639 5.009517,-2.04639 0.878,0 1.67,0.12584 2.37556,0.37672 0.70555,0.25085 1.32468,0.59555 1.85777,1.03457 V 91.72205 c 0,-0.783953 0.27443,-1.450084 0.82321,-1.998844 C 107.34637,89.17444 108.01251,88.9 108.79646,88.9 Z" /></g></g></svg>
