<?xml version="1.0" encoding="UTF-8"?>
<!-- Created with Inkscape (http://www.inkscape.org/) -->
<svg width="1024" height="1024" version="1.1" viewBox="0 0 270.93 270.93" xml:space="preserve" xmlns="http://www.w3.org/2000/svg"><g transform="translate(0 -42.863)"><path d="m63.979 85.725c-11.694 0-22.119 4.1892-31.276 12.568-9.1567 8.3783-14.618 18.411-16.383 30.096l-15.886 110.79c-1.3239 9.9218 0.3861 17.694 5.1299 23.316 4.7438 5.6223 11.308 8.4336 19.693 8.4336 5.0748 0 9.3769-0.82662 12.907-2.48 3.5303-1.6537 6.5093-3.6932 8.9364-6.1185l34.42-34.396h73.234a59.267 59.267 0 0 1-2.3533-16.272 59.267 59.267 0 0 1 59.267-59.267 59.267 59.267 0 0 1 50.652 28.509l-7.3737-52.52c-1.7651-11.686-7.2258-21.718-16.382-30.096-9.1566-8.3785-19.582-12.568-31.276-12.568zm116.17 36.38c3.5303 0 6.6194 1.3229 9.2671 3.9688 2.6477 2.6458 3.9718 5.7327 3.9718 9.2604 0 3.5278-1.3241 6.6146-3.9718 9.2604-2.6477 2.6458-5.7369 3.9688-9.2671 3.9688-3.5303 0-6.6189-1.3229-9.2666-3.9688-2.6477-2.6458-3.9718-5.7326-3.9718-9.2604 0-3.5277 1.3241-6.6146 3.9718-9.2604 2.6477-2.6458 5.7363-3.9688 9.2666-3.9688zm-96.018 1.6547c2.4013 0 4.387 0.78083 5.9573 2.3425 1.5701 1.562 2.3554 3.5372 2.3554 5.9257v16.536h16.548c2.3903 0 4.3674 0.77177 5.9304 2.3151 1.5628 1.5435 2.344 3.5147 2.344 5.9144 0 2.3988-0.78127 4.3836-2.344 5.9536-1.563 1.5683-3.5402 2.3523-5.9304 2.3523h-16.548v16.536c0 2.3887-0.77223 4.3641-2.3167 5.9257-1.5445 1.5617-3.5175 2.3425-5.919 2.3425v-5.2e-4c-2.4013 0-4.387-0.78082-5.9572-2.3425-1.5701-1.5618-2.3554-3.5367-2.3554-5.9252v-16.536h-16.548c-2.3903 0-4.3669-0.77177-5.9299-2.3151-1.5628-1.5433-2.3446-3.5151-2.3446-5.9149 0-2.3987 0.78178-4.3831 2.3446-5.9531 1.563-1.5683 3.5396-2.3523 5.9299-2.3523h16.548v-16.536c0-2.3888 0.77223-4.3641 2.3167-5.9257 1.5445-1.5617 3.5176-2.3425 5.919-2.3425z" fill="#021848" stroke-width=".33085"/><path d="m211.67 152.4a59.267 59.267 0 0 0-59.267 59.267 59.267 59.267 0 0 0 59.267 59.267 59.267 59.267 0 0 0 59.267-59.267 59.267 59.267 0 0 0-59.267-59.267zm5.9268 25.4h10.066c1.756 0 3.2455 0.61154 4.4685 1.8345 1.223 1.223 1.8345 2.7124 1.8345 4.4685 0 1.756-0.61156 3.2611-1.8345 4.5155-1.223 1.2543-2.7124 1.8815-4.4685 1.8815h-10.066v40.923c0 3.9511-1.3641 7.2904-4.0923 10.019-2.7281 2.7282-6.0679 4.0923-10.019 4.0923s-7.2909-1.3641-10.019-4.0923c-2.7281-2.7281-4.0923-6.0674-4.0923-10.019s1.3641-7.2909 4.0923-10.019c2.7282-2.7282 6.0679-4.0923 10.019-4.0923 1.756 0 3.3395 0.25065 4.7506 0.75241 1.4111 0.50171 2.6499 1.1916 3.716 2.0696v-36.689c0-1.5679 0.54887-2.9007 1.6464-3.9982 1.0975-1.0975 2.4303-1.6464 3.9982-1.6464z" fill="#ff7100" stroke-width=".31337"/></g></svg>
