<?xml version="1.0" encoding="UTF-8" standalone="no"?>
<!-- Created with Inkscape (http://www.inkscape.org/) -->

<svg
   width="1024"
   height="1024"
   viewBox="0 0 270.93334 270.93334"
   version="1.1"
   id="svg5"
   xml:space="preserve"
   inkscape:version="1.2.2 (b0a8486541, 2022-12-01)"
   sodipodi:docname="app_icon_original.svg"
   inkscape:export-filename="app_icon.png"
   inkscape:export-xdpi="96"
   inkscape:export-ydpi="96"
   xmlns:inkscape="http://www.inkscape.org/namespaces/inkscape"
   xmlns:sodipodi="http://sodipodi.sourceforge.net/DTD/sodipodi-0.dtd"
   xmlns="http://www.w3.org/2000/svg"
   xmlns:svg="http://www.w3.org/2000/svg"><sodipodi:namedview
     id="namedview7"
     pagecolor="#ffffff"
     bordercolor="#000000"
     borderopacity="0.25"
     inkscape:showpageshadow="2"
     inkscape:pageopacity="0.0"
     inkscape:pagecheckerboard="0"
     inkscape:deskcolor="#d1d1d1"
     inkscape:document-units="mm"
     showgrid="false"
     inkscape:zoom="0.51276154"
     inkscape:cx="288.63319"
     inkscape:cy="571.41571"
     inkscape:window-width="1920"
     inkscape:window-height="1011"
     inkscape:window-x="0"
     inkscape:window-y="0"
     inkscape:window-maximized="1"
     inkscape:current-layer="layer1" /><defs
     id="defs2" /><g
     inkscape:label="Camada 1"
     inkscape:groupmode="layer"
     id="layer1"><g
       id="g4686"
       transform="translate(0,-42.862502)"><path
         id="path205"
         style="fill:#021848;fill-opacity:1;stroke-width:0.330848"
         d="m 63.978746,85.725007 c -11.69407,0 -22.11947,4.189215 -31.27613,12.567708 -9.15668,8.378325 -14.61785,18.410515 -16.38298,30.096355 L 0.43326655,239.18333 c -1.32386,9.92183 0.3861,17.69391 5.12991965,23.31641 4.7438098,5.62233 11.3084198,8.43359 19.6928498,8.43359 5.07477,0 9.37694,-0.82662 12.90723,-2.47995 3.53028,-1.65366 6.50933,-3.69316 8.9364,-6.11849 l 34.42012,-34.39583 h 73.233764 a 59.266666,59.266666 0 0 1 -2.35334,-16.27239 59.266666,59.266666 0 0 1 59.26667,-59.26667 59.266666,59.266666 0 0 1 50.65169,28.50937 l -7.37371,-52.5203 C 253.17972,116.70323 247.71908,106.67104 238.56239,98.292715 229.40574,89.914222 218.98033,85.725007 207.28627,85.725007 Z M 180.14684,122.10522 c 3.53027,0 6.61941,1.32292 9.26713,3.96875 2.64771,2.64583 3.97185,5.73274 3.97185,9.26041 0,3.52783 -1.32414,6.61458 -3.97185,9.26041 -2.64772,2.64583 -5.73686,3.96875 -9.26713,3.96875 -3.53029,0 -6.6189,-1.32292 -9.26662,-3.96875 -2.64771,-2.64583 -3.97185,-5.73258 -3.97185,-9.26041 0,-3.52767 1.32414,-6.61458 3.97185,-9.26041 2.64772,-2.64583 5.73633,-3.96875 9.26662,-3.96875 z m -96.017904,1.65468 c 2.40128,0 4.38698,0.78083 5.95726,2.34249 1.570107,1.562 2.355407,3.53723 2.355407,5.92574 v 16.53645 h 16.547817 c 2.39031,0 4.36744,0.77177 5.93039,2.3151 1.56277,1.5435 2.34404,3.5147 2.34404,5.91437 0,2.39883 -0.78127,4.38365 -2.34404,5.95364 -1.56305,1.56834 -3.54018,2.35231 -5.93039,2.35231 H 92.441603 v 16.53646 c 0,2.38867 -0.77223,4.36408 -2.316657,5.92573 -1.54449,1.56168 -3.51754,2.3425 -5.91902,2.3425 v -5.2e-4 c -2.40129,0 -4.38698,-0.78082 -5.95725,-2.34249 -1.57012,-1.56183 -2.35542,-3.53672 -2.35542,-5.92522 V 165.1 h -16.54782 c -2.39032,0 -4.36693,-0.77177 -5.92987,-2.3151 -1.56278,-1.54334 -2.34456,-3.51506 -2.34456,-5.91489 0,-2.39867 0.78178,-4.38313 2.34456,-5.95312 1.56302,-1.56834 3.53964,-2.35231 5.92987,-2.35231 h 16.54782 v -16.53645 c 0,-2.38884 0.77223,-4.36407 2.31666,-5.92574 1.5445,-1.56166 3.51755,-2.34249 5.91902,-2.34249 z" /><path
         id="path266"
         style="fill:#ff7100;fill-opacity:1;stroke-width:0.313368"
         d="M 211.66667,152.4 A 59.266666,59.266666 0 0 0 152.4,211.66666 59.266666,59.266666 0 0 0 211.66667,270.93333 59.266666,59.266666 0 0 0 270.93333,211.66666 59.266666,59.266666 0 0 0 211.66667,152.4 Z m 5.92677,25.4 h 10.06553 c 1.75605,0 3.2455,0.61154 4.46846,1.83451 1.22296,1.22296 1.83452,2.7124 1.83452,4.46846 0,1.75602 -0.61156,3.26114 -1.83452,4.51549 -1.22296,1.2543 -2.71241,1.88154 -4.46846,1.88154 h -10.06553 v 40.92256 c 0,3.95111 -1.36411,7.2904 -4.09226,10.01851 -2.72814,2.72815 -6.06791,4.09226 -10.01902,4.09226 -3.95111,0 -7.29088,-1.36411 -10.01903,-4.09226 -2.72814,-2.72811 -4.09226,-6.0674 -4.09226,-10.01851 0,-3.95111 1.36412,-7.29086 4.09226,-10.01902 2.72815,-2.72815 6.06792,-4.09226 10.01903,-4.09226 1.75605,0 3.3395,0.25065 4.75061,0.75241 1.41111,0.50171 2.64989,1.19161 3.71605,2.06964 v -36.68872 c 0,-1.56789 0.54887,-2.90067 1.64641,-3.9982 1.09752,-1.09753 2.43031,-1.64641 3.99821,-1.64641 z" /></g></g></svg>
